<mxfile host="app.diagrams.net" modified="2023-08-31T10:29:46.971Z" agent="Mozilla/5.0 (Windows NT 10.0; Win64; x64) AppleWebKit/537.36 (KHTML, like Gecko) Chrome/116.0.0.0 Safari/537.36" version="21.7.1" etag="4o4XUwbzE7GjNWGpKEBC" type="github">
  <diagram name="페이지-1" id="Ry3r8tJj6oOEQyXzW1wB">
    <mxGraphModel>
      <root>
        <mxCell id="0" />
        <mxCell id="1" parent="0" />
      </root>
    </mxGraphModel>
  </diagram>
</mxfile>
